<svg width="1200" height="1200" viewBox="0 0 1200 1200" fill="none" xmlns="http://www.w3.org/2000/svg">
<mask id="mask0_410_1351" style="mask-type:alpha" maskUnits="userSpaceOnUse" x="0" y="0" width="1197" height="1197">
<circle cx="598.033" cy="598.033" r="598.033" fill="#D9D9D9"/>
</mask>
<g mask="url(#mask0_410_1351)">
<path d="M933.883 1064.76C931.138 1066.73 928.001 1068.69 925.256 1070.65C922.118 1072.61 919.373 1074.57 916.236 1076.14C913.491 1077.71 911.138 1079.27 908.393 1080.84C908.001 1081.24 907.609 1081.24 907.216 1081.63C898.197 1087.12 888.785 1092.22 879.373 1096.92C876.628 1098.49 873.491 1100.06 870.746 1101.24C870.746 1101.24 870.354 1101.63 869.962 1101.63C866.824 1103.2 863.687 1104.76 860.55 1106.33C854.275 1109.47 847.609 1112.22 841.334 1114.96C838.197 1116.53 834.667 1117.71 831.53 1118.88C828.393 1120.06 824.864 1121.63 821.726 1122.8C818.589 1123.98 815.06 1125.55 811.922 1126.73C811.922 1126.73 811.922 1126.73 811.53 1126.73C808.393 1127.9 804.864 1129.08 801.726 1130.25C794.667 1132.61 787.216 1134.96 780.158 1137.31C777.805 1138.1 775.06 1138.88 772.707 1139.67C765.256 1142.02 757.805 1143.98 750.354 1145.55C747.609 1146.33 744.864 1146.73 741.726 1147.51C734.667 1149.08 727.216 1150.65 720.158 1152.22C718.589 1152.61 717.413 1152.61 715.844 1153C713.491 1153.39 710.746 1153.78 708.393 1154.18C704.864 1154.57 701.726 1155.35 698.197 1155.74C696.628 1156.14 695.06 1156.14 693.491 1156.53C691.53 1156.92 689.177 1157.31 686.824 1157.31C680.55 1158.1 673.883 1158.88 667.609 1159.67C665.648 1160.06 663.295 1160.06 661.334 1160.45H660.942C658.197 1160.84 655.452 1160.84 652.707 1161.24C649.962 1161.63 647.217 1161.63 644.471 1161.63C642.903 1161.63 640.942 1162.02 639.373 1162.02C636.236 1162.02 633.491 1162.41 630.746 1162.41C626.824 1162.41 623.295 1162.8 619.373 1162.8C615.452 1162.8 611.922 1162.8 608.001 1162.8C605.256 1162.8 602.511 1162.8 599.765 1162.8C434.275 1160.45 285.648 1090.25 179.373 978.882C179.373 978.882 179.373 978.49 178.981 978.49C167.216 967.902 177.413 911.431 224.864 875.745C284.471 830.647 427.217 802.412 427.217 802.412C427.217 802.412 482.511 793.392 687.609 836.137C807.609 861.235 898.981 897.706 949.962 996.529C960.55 1016.92 971.138 1048.29 933.883 1064.76Z" fill="white"/>
<path d="M688.785 831.823C764.079 847.118 844.471 863.588 906.432 913.392C927.216 930.255 940.942 954.961 952.315 978.882C957.805 990.647 963.295 1002.8 967.609 1015.75C969.962 1024.37 973.491 1034.18 971.53 1044.37C971.138 1047.12 968.785 1050.65 966.824 1052.61C957.805 1061.63 948.001 1067.12 938.197 1074.18C880.55 1114.18 814.275 1142.41 745.648 1157.31C592.707 1190.65 427.216 1164.76 292.707 1084.37C248.001 1057.31 206.824 1024.37 171.53 985.549C167.609 980.843 167.609 973 167.609 967.902C168.001 956.137 171.138 944.765 175.06 934.176C184.471 909.863 196.628 885.549 217.413 868.686C232.315 858.49 248.393 849.863 264.864 842.804C316.628 820.843 371.138 805.549 427.216 799.274C431.922 798.882 432.707 805.549 428.001 806.333C374.275 817.314 320.942 833.784 271.138 856.137C253.099 865.157 233.883 873 219.373 887.118C205.648 902.02 195.844 920.451 188.001 939.274C182.903 950.647 179.373 968.686 180.942 977.706C205.648 1007.12 234.667 1033 266.04 1055.35C437.805 1175.35 698.589 1183.2 881.334 1083.2C897.805 1074.18 913.883 1063.98 929.177 1053.39C936.628 1048.29 944.471 1043.98 950.354 1038.1C950.746 1037.71 950.354 1038.1 950.354 1038.49C950.354 1038.88 949.962 1039.27 949.962 1039.27C950.354 1034.57 948.785 1028.29 946.824 1022.02C939.765 999.274 928.393 975.353 916.236 954.569C897.02 923.588 864.471 903.98 831.53 888.294C808.785 877.706 784.863 869.471 760.55 861.627C736.236 853.784 711.53 847.118 686.824 841.235C680.55 839.667 682.511 830.647 688.785 831.823Z" fill="black"/>
<path d="M984.341 1120.45C976.915 1062.41 944.083 964.764 924.15 938.489C902.262 909.862 893.273 900.842 820.184 876.136C816.275 856.528 801.814 807.117 784.617 786.332C758.43 746.724 686.904 737.705 665.407 742.411C665.407 742.411 549.716 701.626 416.436 701.626C374.224 711.038 325.368 730.254 298.79 770.646C280.811 797.313 301.136 805.94 292.146 830.254C289.801 836.528 235.082 867.901 212.804 886.724C202.641 894.96 191.307 915.744 183.49 942.803C167.856 998.097 184.662 1074.57 165.12 1141.23C127.598 1269.86 51.3826 1308.29 51.3826 1308.29H1061.34C1060.56 1307.9 1000.37 1242.8 984.341 1120.45Z" fill="#FFCB45"/>
<path d="M978.48 1121.24C970.663 1069.86 955.029 1018.88 935.095 971.04C925.324 947.902 910.472 925.549 889.757 911.824C879.204 905.157 867.478 900.059 855.362 894.961C843.246 890.255 830.738 885.941 818.622 881.628C816.668 880.843 815.104 879.275 814.714 877.314C813.15 869.471 811.196 862.02 808.851 854.177C798.689 822.412 787.745 787.118 758.04 768.687C735.371 754.961 708.402 748.294 682.216 747.118C677.135 747.118 671.663 747.118 666.972 747.902H665.409C665.018 747.902 664.236 747.902 663.846 747.51C645.085 738.49 624.37 733 604.046 727.51C543.073 713.392 479.365 707.51 416.829 707.118C378.525 716.138 324.979 737.314 301.528 776.53C297.619 782.804 295.665 789.079 296.447 796.138C297.229 803.981 299.965 812.608 298.01 820.843C297.229 824.373 296.447 828.294 294.884 831.432C291.757 835.745 286.676 838.49 282.767 841.236C262.443 854.569 241.728 866.334 222.186 880.059C215.541 884.765 209.287 889.079 204.597 895.745C190.918 915.353 182.71 938.883 179.192 962.412C172.938 1010.26 179.192 1058.88 172.938 1106.73C165.903 1154.57 147.533 1200.84 121.737 1241.63C103.758 1269.08 81.8705 1294.57 54.1202 1312.22L51.3842 1301.24H1061.34L1057.04 1311.04C1045.31 1297.71 1035.93 1283.2 1027.34 1267.9C1000.76 1223.2 985.124 1172.61 978.48 1121.24ZM990.205 1119.67C994.504 1153 1002.71 1185.94 1015.22 1217.31C1027.73 1248.29 1043.36 1278.49 1065.25 1303.98C1068.38 1307.51 1065.64 1314.18 1060.95 1313.78H50.9934C47.8666 1313.78 45.1306 1311.04 45.1306 1307.9C45.1306 1305.55 46.3032 1303.59 48.2574 1302.8C54.511 1299.27 60.7646 1294.18 66.6273 1289.08C117.829 1242.8 149.878 1174.18 160.431 1105.94C169.421 1042.02 152.614 973 181.146 912.216C187.791 898.098 195.999 883.196 209.287 874.177C233.52 856.138 260.098 842.804 283.94 825.157C284.331 825.157 284.331 824.765 284.331 824.765C283.94 825.157 283.549 825.941 283.549 826.334C285.894 820.843 286.676 816.138 285.894 809.863C284.721 802.02 282.767 791.432 285.503 783.196C286.676 778.491 289.021 774.177 291.366 770.647C319.507 728.294 369.145 709.471 416.438 698.883C429.727 699.275 443.406 696.922 456.695 696.922C475.065 696.922 493.826 699.667 512.196 702.02C564.961 710.255 615.771 724.373 667.754 735.745L664.236 735.353C676.353 733 687.687 734.177 699.413 735.745C774.456 747.118 799.861 780.059 820.186 850.255C822.531 858.098 824.485 865.941 826.439 874.177L822.531 869.471C860.052 882.804 902.264 894.961 926.106 929.863C934.704 940.451 940.958 953 946.43 965.549C966.363 1015.75 981.997 1066.33 990.205 1119.67Z" fill="black"/>
<path d="M368.364 862.413C397.287 924.374 442.235 976.923 495.781 1018.49C497.735 1020.06 495.781 1023.2 493.436 1022.02C445.752 999.276 405.495 960.452 381.653 913.394C373.836 897.707 367.192 880.844 364.847 863.197C364.065 861.237 367.192 860.452 368.364 862.413Z" fill="black"/>
<path d="M826.049 875.354C827.222 940.844 800.644 1007.9 749.834 1050.26C748.661 1051.43 747.098 1051.04 745.925 1049.86C744.753 1048.69 745.144 1047.12 746.316 1045.94C757.651 1034.96 768.985 1023.59 777.584 1010.26C795.563 984.373 806.507 953.785 811.588 922.805C813.933 907.511 815.497 891.04 814.324 875.746C813.933 868.295 825.659 867.511 826.049 875.354Z" fill="black"/>
<path d="M595.838 1031.04C586.848 1062.8 579.422 1097.31 583.721 1130.26C584.894 1137.71 573.559 1139.67 571.996 1131.82C570.042 1113.78 572.387 1096.14 575.514 1078.88C579.031 1061.63 583.331 1045.16 589.193 1028.69C590.757 1024.77 597.401 1026.73 595.838 1031.04Z" fill="black"/>
<path d="M720.128 1025.16C733.026 1053 742.016 1082.02 749.051 1111.43C749.833 1114.57 747.878 1117.71 744.752 1118.49C741.625 1119.27 738.498 1117.31 737.716 1114.18C733.808 1092.22 728.727 1070.26 721.691 1048.69C719.346 1041.63 717.001 1034.57 714.265 1027.51C712.702 1023.98 718.174 1021.24 720.128 1025.16Z" fill="black"/>
<path d="M300.355 828.686C314.817 907.902 370.318 974.961 437.153 1017.71C459.822 1032.22 484.055 1044.76 509.069 1054.96C510.633 1055.75 511.414 1057.31 510.633 1058.88C510.242 1060.45 508.288 1061.24 507.115 1060.45C481.319 1051.04 456.304 1039.27 432.854 1025.16C385.17 996.922 343.349 957.706 315.208 909.863C300.746 885.157 289.412 859.275 283.94 831.039C283.158 826.333 286.285 822.02 290.975 821.235C295.274 820.059 299.965 823.588 300.355 828.686Z" fill="black"/>
<path d="M572.385 1138.88C561.441 1137.71 553.624 1127.51 555.969 1116.53L560.269 1095.75C561.832 1087.51 569.649 1081.63 577.857 1082.8C586.065 1083.59 592.709 1090.65 592.709 1099.27V1120.45C593.1 1131.43 583.72 1140.06 572.385 1138.88Z" fill="black"/>
<path d="M752.568 1124.37C742.016 1128.29 730.681 1122.02 727.945 1111.04L722.864 1090.26C720.91 1082.02 725.209 1073.78 733.417 1070.65C741.234 1067.9 750.223 1071.43 753.741 1078.88L763.121 1098.1C767.812 1108.69 763.121 1120.84 752.568 1124.37Z" fill="black"/>
<path d="M243.291 1307.9C243.291 1307.9 239.774 1220.45 228.048 1196.92" stroke="black" stroke-width="5.1257" stroke-miterlimit="10" stroke-linecap="round" stroke-linejoin="round"/>
<path d="M933.141 1112.61C933.141 1112.61 955.029 1235.75 946.43 1307.9" stroke="black" stroke-width="5.1257" stroke-miterlimit="10" stroke-linecap="round" stroke-linejoin="round"/>
<path d="M422.69 814.569C417.218 798.883 414.873 782.805 416.046 766.334C416.046 764.765 417.218 763.981 418.782 763.981C419.954 763.981 421.127 765.157 421.127 766.334C422.299 781.236 426.599 796.53 433.634 809.471C437.152 817.314 425.426 822.412 422.69 814.569Z" fill="black"/>
<path d="M686.904 835.354C675.961 810.648 648.992 798.099 625.15 789.471C610.298 784.765 593.882 781.236 578.248 778.883C540.336 773.001 486.789 763.981 448.877 760.059C448.486 760.059 448.486 759.275 448.877 759.275C459.821 758.099 470.764 758.099 481.708 758.099C514.54 758.883 547.371 762.412 579.812 767.51C612.252 772.608 647.038 782.412 671.661 805.942C679.478 814.177 686.513 823.589 688.468 834.961C688.859 836.138 687.295 836.53 686.904 835.354Z" fill="black"/>
<path d="M723.252 932.927C715.044 973.185 661.889 997.417 572.384 961.068C479.362 923.547 439.104 834.042 428.942 807.464C484.052 704.28 445.749 632.755 445.749 632.755C572.775 621.811 683.776 770.334 683.776 770.334L700.974 843.813C702.537 850.067 705.664 855.539 710.354 859.447C718.562 873.909 728.333 907.131 723.252 932.927Z" fill="#EFBDA5"/>
<path d="M426.99 808.637C434.416 797.302 439.106 784.013 442.233 771.115C448.096 744.147 450.05 716.787 450.441 689.428V679.266C449.268 669.104 445.751 658.551 441.842 649.17C436.761 636.663 455.131 628.846 460.994 641.353C461.776 642.917 461.776 645.653 461.776 647.216C462.948 700.372 465.293 768.77 431.68 812.936C429.335 815.281 424.645 811.764 426.99 808.637Z" fill="black"/>
<path d="M688.076 769.552C693.939 773.07 695.893 777.76 696.675 782.45C699.02 791.831 698.238 801.993 700.584 811.764C702.538 821.144 708.401 830.134 709.964 839.905C711.918 850.067 717.781 871.564 720.126 882.117C720.908 884.462 719.344 887.198 716.608 887.589C715.045 887.98 713.872 887.589 712.7 886.807C707.619 882.508 705.274 878.208 702.147 872.736C697.066 863.356 693.548 854.757 690.422 844.204C687.686 834.824 688.858 824.662 686.513 814.891C684.559 805.51 679.087 796.521 677.133 786.75C675.96 782.059 675.569 776.978 679.087 771.116C681.432 768.77 685.34 767.989 688.076 769.552Z" fill="black"/>
<path d="M716.219 872.736C641.566 868.828 580.594 845.377 521.185 739.457C571.214 783.623 630.232 800.429 692.377 808.246L700.585 844.204C702.148 850.458 711.529 868.828 716.219 872.736Z" fill="black"/>
<path d="M713.093 858.275C726.382 883.29 734.199 914.558 725.992 942.308C719.738 961.85 701.759 976.312 682.216 981.784C636.878 993.9 584.504 974.748 544.246 953.252C494.608 925.501 457.869 878.99 434.418 828.18C432.854 824.271 438.326 821.144 440.671 825.053C448.879 841.469 458.259 857.494 468.812 871.955C479.365 886.807 491.482 900.487 505.161 912.603C545.028 948.561 598.965 970.84 652.903 970.84C708.403 969.277 729.509 939.963 716.611 886.026C714.657 877.427 711.53 868.437 707.231 861.011C704.886 857.884 710.748 854.367 713.093 858.275Z" fill="black"/>
<path d="M864.351 388.864C871.386 421.696 874.904 448.274 855.752 535.824C836.991 622.983 882.721 640.962 774.455 780.496C730.289 837.56 623.197 821.535 536.428 762.517C507.114 742.583 494.607 691.382 472.719 655.033C455.522 626.501 447.705 656.206 425.036 631.582C394.159 597.969 357.028 530.352 375.398 410.752C405.102 216.891 558.706 194.221 672.444 215.718C786.963 237.606 845.59 302.487 864.351 388.864Z" fill="#EFBDA5"/>
<path d="M444.578 666.367C435.589 651.124 423.863 637.835 412.919 623.765C402.366 609.303 393.768 593.279 386.732 576.863C340.221 462.735 358.2 302.096 472.329 234.869C519.621 207.51 576.685 200.866 629.841 205.165C743.578 213.373 847.935 265.747 872.559 386.128C885.847 439.284 867.868 494.003 857.706 545.986C853.016 571.782 856.925 598.36 856.534 624.937C856.143 651.906 848.717 678.875 838.555 703.889C832.301 721.086 821.357 736.33 810.023 750.4C791.262 773.069 772.501 796.13 748.659 813.718C743.187 817.626 733.416 819.581 726.772 820.362C708.402 823.098 690.423 823.88 672.053 822.707C600.136 819.581 523.139 784.795 494.216 715.224C493.044 712.488 496.952 710.534 498.515 712.879C536.037 772.288 604.827 801.601 673.225 805.51C694.331 806.683 715.828 806.292 736.543 801.992C746.705 796.911 755.695 787.922 764.293 779.714C785.399 758.608 806.896 735.939 822.139 710.143C840.509 675.357 850.671 637.445 847.544 597.969C846.763 580.381 846.372 562.011 849.889 544.422C853.016 526.834 856.925 510.028 859.27 492.049C861.615 474.851 862.787 457.263 862.787 440.066C860.833 389.646 844.417 337.663 812.368 298.578C741.624 210.637 574.34 187.577 480.146 247.768C420.736 284.507 392.986 353.297 383.996 420.132C370.317 500.256 374.225 579.208 437.934 637.445L456.695 656.987C464.121 665.586 450.832 675.748 444.578 666.367Z" fill="black"/>
<path d="M490.697 542.077C490.697 542.077 478.581 483.449 421.517 490.485C372.269 496.738 355.072 614.775 466.855 647.606" fill="#EFBDA5"/>
<path d="M461.775 596.405C452.786 591.324 446.532 582.726 446.141 572.173C446.532 564.356 447.705 555.366 445.751 547.549C444.578 540.123 436.761 538.169 430.898 538.56C424.645 539.732 420.736 547.549 419.564 553.803C419.564 554.194 419.173 555.366 419.173 555.757C418.782 557.711 415.655 557.711 414.874 555.757C409.792 540.514 421.127 523.707 437.543 525.662C460.603 527.225 463.73 551.458 459.43 569.828C457.085 577.645 460.212 584.68 464.511 591.324L465.293 592.497C467.247 594.842 464.121 597.969 461.775 596.405Z" fill="black"/>
<path d="M774.454 500.647C780.317 528.397 791.261 554.193 804.941 578.426C817.057 608.13 785.789 636.272 758.039 635.099C754.912 635.099 754.521 630.8 757.257 630.018C774.845 624.546 790.87 612.821 793.606 594.842C794.778 589.37 793.215 584.68 790.479 579.989C777.581 555.757 769.764 528.006 771.718 500.647C771.718 498.693 774.454 498.693 774.454 500.647Z" fill="black"/>
<path d="M488.744 542.468C479.755 519.408 460.212 497.521 434.025 497.912C431.68 497.521 427.772 498.302 425.427 498.302C418.782 498.693 413.31 501.038 408.229 505.729C383.215 530.743 387.514 574.909 407.838 602.659C414.874 612.431 423.863 621.029 434.025 628.065C444.187 635.1 455.522 640.572 467.638 645.262C470.374 646.044 469.202 650.343 466.466 649.952C440.279 644.48 415.264 631.582 398.067 610.085C371.489 578.036 366.017 524.489 397.676 493.221C404.711 486.968 414.483 482.278 424.254 482.278C427.381 482.278 432.071 481.496 435.198 482.278C451.613 483.059 467.247 491.267 477.409 504.165C486.399 515.109 491.48 528.398 493.043 541.687C493.043 544.032 489.526 544.814 488.744 542.468Z" fill="black"/>
<path d="M747.216 676.529C722.118 700.451 674.667 681.235 662.118 652.216C660.549 648.686 664.471 645.549 667.608 647.117C674.275 650.647 680.157 654.176 686.432 656.921C704.471 665.157 723.294 671.823 743.294 669.863C747.216 669.078 749.961 673.784 747.216 676.529Z" fill="black"/>
<path d="M630.746 542.412C621.334 542.02 614.275 534.177 615.06 524.765L615.452 513.785C615.844 504.373 623.687 497.314 633.099 498.099C642.511 498.491 649.57 506.334 648.785 515.746L648.393 526.726C648.001 535.746 640.158 542.804 630.746 542.412Z" fill="black"/>
<path d="M795.843 548.295C787.215 547.903 780.549 540.452 780.941 531.824L781.333 521.628C781.725 513.001 789.176 506.334 797.803 506.726C806.431 507.119 813.098 514.57 812.705 523.197L812.313 533.393C811.921 542.02 804.47 548.687 795.843 548.295Z" fill="black"/>
<path d="M666.04 521.236C653.099 512.608 638.981 506.726 623.295 509.863C618.197 510.647 613.099 512.216 609.962 515.746C608.785 517.314 606.04 516.922 606.04 514.569C606.432 506.726 613.099 501.628 619.373 498.491C631.53 492.216 648.393 493.393 659.373 501.628C663.295 503.981 676.628 518.491 669.569 521.628C668.001 522.412 667.217 522.02 666.04 521.236Z" fill="black"/>
<path d="M778.197 523.197C778.197 506.726 798.589 500.844 811.138 506.726C818.197 509.863 823.295 516.138 825.256 523.589C826.04 525.942 822.511 527.903 820.942 525.942C814.275 518.099 802.903 514.177 793.883 518.883C791.138 520.452 790.746 521.628 789.962 523.197C789.962 531.04 778.589 530.648 778.197 523.197Z" fill="black"/>
<path d="M684.864 456.53C693.099 459.275 701.334 451.824 699.766 442.804C698.981 438.098 697.02 433.392 693.099 429.863C681.334 419.275 632.707 409.863 603.295 423.589C577.413 436.138 647.217 443.981 684.864 456.53Z" fill="black"/>
<path d="M802.12 462.804C795.453 465.157 788.394 458.098 789.571 449.863C789.963 445.549 791.532 441.236 794.669 438.098C804.081 428.687 836.237 421.236 856.63 435.745C874.277 447.902 832.708 451.432 802.12 462.804Z" fill="black"/>
<path d="M877.806 276.922C868.394 248.294 855.061 223.588 841.335 210.255C812.708 182.02 803.296 220.059 803.296 220.059C803.296 220.059 759.767 138.882 699.767 127.902C657.022 120.059 668.394 169.471 668.394 169.471C668.394 169.471 617.022 114.177 545.257 114.177C488.394 114.177 509.963 163.196 509.963 163.196C509.963 163.196 508.786 105.157 466.041 115.353C423.296 125.549 439.375 209.863 439.375 209.863C405.257 124.373 347.218 207.51 337.414 386.333C331.531 492.608 362.904 561.628 384.08 595.745C402.904 629.471 424.08 653 435.845 674.177C452.708 704.373 460.943 737.314 460.943 737.314C464.865 721.235 473.1 665.157 468.394 649.863L455.453 645.549C357.414 607.902 375.061 498.49 422.904 492.216C473.1 485.941 488.786 530.647 491.531 541.628C509.571 520.059 460.551 380.059 547.61 345.941C631.924 313 684.473 361.628 774.669 373.784C802.904 377.706 829.571 356.922 849.963 360.451C856.237 361.628 860.943 366.333 862.904 372.608C864.473 378.49 866.041 384.373 867.61 390.647C872.708 414.569 974.669 295.745 877.806 276.922Z" fill="black"/>
<path d="M693.099 590.647C693.099 590.647 656.236 613.784 614.667 613.392C573.099 613 568.001 580.451 567.608 562.804C567.608 562.804 573.099 588.294 598.197 597.706C622.903 607.117 693.099 590.647 693.099 590.647Z" fill="black"/>
<path d="M811.527 586.333C811.527 586.333 820.547 597.313 832.704 605.157C840.939 610.647 851.919 604.764 851.919 594.961C851.919 594.961 829.174 596.137 811.527 586.333Z" fill="black"/>
<path d="M706.822 485.941C685.645 483.98 632.312 479.667 611.92 477.706L596.233 476.529C583.292 475.745 573.096 486.725 570.743 499.274C569.959 503.196 569.959 509.863 569.959 513.784V529.863C569.959 539.667 569.567 549.863 573.096 559.275C579.371 581.235 599.371 598.882 622.9 596.137C625.253 595.745 639.763 594.176 642.508 593.784L674.273 590.255C684.469 589.471 693.88 586.726 702.9 581.235C715.449 573.784 727.606 562.412 726.822 546.333L727.606 530.647C728.39 511.039 733.88 487.902 706.822 485.941ZM707.998 473C726.429 474.569 738.978 493.784 737.802 511.431C737.802 513.784 737.018 528.686 736.625 531.431C736.625 534.569 735.841 548.686 735.449 551.431C733.488 578.098 703.684 596.922 679.371 600.451C666.822 602.02 640.547 605.549 627.998 607.118C624.861 607.51 620.547 607.902 617.41 608.294C615.841 608.294 612.312 607.902 610.743 607.902C577.41 603.588 556.233 569.471 557.018 537.706C557.018 532.608 557.018 519.274 557.018 513.784C557.018 511.039 557.018 503.98 557.41 501.235C558.586 487.51 566.037 474.176 578.586 466.725C584.076 463.588 590.743 462.02 597.41 462.412L613.488 463.98C633.096 466.333 687.214 471.431 707.998 473Z" fill="black"/>
<path d="M798.979 479.274C807.607 478.098 849.96 473.392 857.803 472.608C859.764 472.608 864.862 471.823 866.43 471.823C883.293 469.47 891.136 487.902 892.705 501.627C893.489 513.784 892.705 525.549 893.097 537.314C893.097 545.549 892.313 553.784 890.352 561.627C885.254 582.804 870.352 605.157 845.646 598.098C839.764 596.921 827.999 595.353 822.509 594.176L816.627 593C805.254 591.039 795.842 583.196 789.568 574.568C777.803 560.843 780.156 542.412 778.979 525.941C777.411 509.47 777.803 483.98 798.979 479.274ZM800.548 490.647C788.391 496.137 791.529 514.568 791.529 525.549L792.313 549.078C792.705 563.98 804.47 578.882 818.587 582.804C822.117 583.588 831.921 585.549 835.842 586.333L847.215 588.686C875.45 597.706 886.43 558.49 886.038 536.921C884.862 518.882 890.352 497.314 877.411 482.804C874.274 479.666 871.136 478.882 867.607 479.666C865.646 480.059 860.548 480.843 858.979 481.235C851.136 482.804 808.783 489.47 800.548 490.647Z" fill="black"/>
<path d="M563.293 515.745C560.156 522.804 557.411 522.02 551.921 522.02L540.548 521.628C526.038 520.843 509.96 519.667 495.45 517.706C487.607 516.53 479.372 515.353 471.528 513.392C468.391 512.608 466.43 509.471 467.215 506.333C467.999 503.588 470.352 501.628 473.097 502.02L495.842 503.196L518.587 503.98C526.038 504.373 545.254 504.765 552.705 505.157C556.626 505.157 560.156 505.549 564.077 504.373C565.646 503.981 567.215 504.765 567.607 506.333C567.999 507.118 567.607 507.51 567.607 508.294L563.293 515.745Z" fill="black"/>
<path d="M730.352 507.51C744.47 499.667 781.724 488.686 788.783 509.863C791.921 515.353 783.685 520.451 780.156 514.961C780.156 515.745 778.195 514.961 777.411 514.961C762.509 513.784 747.215 516.137 732.313 517.314C726.038 518.098 724.862 509.863 730.352 507.51Z" fill="black"/>
<path d="M1130.2 330.588C1368.24 789.02 949.804 1306.27 450.981 1180C227.059 1124.31 47.0589 930.196 9.80403 702.353C-32.5489 475.686 69.804 232.157 261.177 103.922C523.53 -76.4704 887.059 -16.4704 1074.9 241.569C1076.08 242.745 1075.69 244.706 1074.12 245.883C1072.94 247.059 1070.98 246.667 1069.8 245.098C1043.92 211.765 1014.51 181.569 982.353 154.51C929.412 109.412 867.451 74.1179 801.961 50.1963C468.628 -70.588 102.745 130.196 29.804 478.824C-52.5489 869.412 279.608 1229.02 675.686 1175.29C981.177 1136.86 1208.24 854.902 1183.14 548.235C1177.65 474.118 1158.04 400.785 1125.49 333.334C1124.71 332.157 1125.49 330.588 1126.67 329.804C1127.84 329.02 1129.41 329.412 1130.2 330.588Z" fill="black"/>
</g>
</svg>
