<svg width="1200" height="1200" viewBox="0 0 1200 1200" fill="none" xmlns="http://www.w3.org/2000/svg">
<mask id="mask0_410_1351" style="mask-type:alpha" maskUnits="userSpaceOnUse" x="0" y="0" width="1197" height="1197">
<circle cx="598.033" cy="598.033" r="598.033" fill="#D9D9D9"/>
</mask>
<g mask="url(#mask0_410_1351)">
<path d="M925.883 1091.76C923.138 1093.73 920.001 1095.69 917.256 1097.65C914.118 1099.61 911.373 1101.57 908.236 1103.14C905.491 1104.71 903.138 1106.27 900.393 1107.84C900.001 1108.24 899.609 1108.24 899.216 1108.63C890.197 1114.12 880.785 1119.22 871.373 1123.92C868.628 1125.49 865.491 1127.06 862.746 1128.24C862.746 1128.24 862.354 1128.63 861.962 1128.63C858.824 1130.2 855.687 1131.76 852.55 1133.33C846.275 1136.47 839.609 1139.22 833.334 1141.96C830.197 1143.53 826.667 1144.71 823.53 1145.88C820.393 1147.06 816.864 1148.63 813.726 1149.8C810.589 1150.98 807.06 1152.55 803.922 1153.73C803.922 1153.73 803.922 1153.73 803.53 1153.73C800.393 1154.9 796.864 1156.08 793.726 1157.25C786.667 1159.61 779.216 1161.96 772.158 1164.31C769.805 1165.1 767.06 1165.88 764.707 1166.67C757.256 1169.02 749.805 1170.98 742.354 1172.55C739.609 1173.33 736.864 1173.73 733.726 1174.51C726.667 1176.08 719.216 1177.65 712.158 1179.22C710.589 1179.61 709.413 1179.61 707.844 1180C705.491 1180.39 702.746 1180.78 700.393 1181.18C696.864 1181.57 693.726 1182.35 690.197 1182.74C688.628 1183.14 687.06 1183.14 685.491 1183.53C683.53 1183.92 681.177 1184.31 678.824 1184.31C672.55 1185.1 665.883 1185.88 659.609 1186.67C657.648 1187.06 655.295 1187.06 653.334 1187.45H652.942C650.197 1187.84 647.452 1187.84 644.707 1188.24C641.962 1188.63 639.217 1188.63 636.471 1188.63C634.903 1188.63 632.942 1189.02 631.373 1189.02C628.236 1189.02 625.491 1189.41 622.746 1189.41C618.824 1189.41 615.295 1189.8 611.373 1189.8C607.452 1189.8 603.922 1189.8 600.001 1189.8C597.256 1189.8 594.511 1189.8 591.765 1189.8C426.275 1187.45 277.648 1117.25 171.373 1005.88C171.373 1005.88 171.373 1005.49 170.981 1005.49C159.216 994.902 169.413 938.431 216.864 902.745C276.471 857.647 419.217 829.412 419.217 829.412C419.217 829.412 474.511 820.392 679.609 863.137C799.609 888.235 890.981 924.706 941.962 1023.53C952.55 1043.92 963.138 1075.29 925.883 1091.76Z" fill="white"/>
<path d="M680.785 858.823C756.079 874.118 836.471 890.588 898.432 940.392C919.216 957.255 932.942 981.961 944.315 1005.88C949.805 1017.65 955.295 1029.8 959.609 1042.75C961.962 1051.37 965.491 1061.18 963.53 1071.37C963.138 1074.12 960.785 1077.65 958.824 1079.61C949.805 1088.63 940.001 1094.12 930.197 1101.18C872.55 1141.18 806.275 1169.41 737.648 1184.31C584.707 1217.65 419.216 1191.76 284.707 1111.37C240.001 1084.31 198.824 1051.37 163.53 1012.55C159.609 1007.84 159.609 1000 159.609 994.902C160.001 983.137 163.138 971.765 167.06 961.176C176.471 936.863 188.628 912.549 209.413 895.686C224.315 885.49 240.393 876.863 256.864 869.804C308.628 847.843 363.138 832.549 419.216 826.274C423.922 825.882 424.707 832.549 420.001 833.333C366.275 844.314 312.942 860.784 263.138 883.137C245.099 892.157 225.883 900 211.373 914.118C197.648 929.02 187.844 947.451 180.001 966.274C174.903 977.647 171.373 995.686 172.942 1004.71C197.648 1034.12 226.667 1060 258.04 1082.35C429.805 1202.35 690.589 1210.2 873.334 1110.2C889.805 1101.18 905.883 1090.98 921.177 1080.39C928.628 1075.29 936.471 1070.98 942.354 1065.1C942.746 1064.71 942.354 1065.1 942.354 1065.49C942.354 1065.88 941.962 1066.27 941.962 1066.27C942.354 1061.57 940.785 1055.29 938.824 1049.02C931.765 1026.27 920.393 1002.35 908.236 981.569C889.02 950.588 856.471 930.98 823.53 915.294C800.785 904.706 776.863 896.471 752.55 888.627C728.236 880.784 703.53 874.118 678.824 868.235C672.55 866.667 674.511 857.647 680.785 858.823Z" fill="black"/>
<path d="M976.341 1147.45C968.915 1089.41 936.083 991.764 916.15 965.489C894.262 936.862 885.273 927.842 812.184 903.136C808.275 883.528 793.814 834.117 776.617 813.332C750.43 773.724 678.904 764.705 657.407 769.411C657.407 769.411 541.716 728.626 408.436 728.626C366.224 738.038 317.368 757.254 290.79 797.646C272.811 824.313 293.136 832.94 284.146 857.254C281.801 863.528 227.082 894.901 204.804 913.724C194.641 921.96 183.307 942.744 175.49 969.803C159.856 1025.1 176.662 1101.57 157.12 1168.23C119.598 1296.86 43.3826 1335.29 43.3826 1335.29H1053.34C1052.56 1334.9 992.366 1269.8 976.341 1147.45Z" fill="#FFCB45"/>
<path d="M970.48 1148.24C962.663 1096.86 947.029 1045.88 927.095 998.04C917.324 974.902 902.472 952.549 881.757 938.824C871.204 932.157 859.478 927.059 847.362 921.961C835.246 917.255 822.738 912.941 810.622 908.628C808.668 907.843 807.104 906.275 806.714 904.314C805.15 896.471 803.196 889.02 800.851 881.177C790.689 849.412 779.745 814.118 750.04 795.687C727.371 781.961 700.402 775.294 674.216 774.118C669.135 774.118 663.663 774.118 658.972 774.902H657.409C657.018 774.902 656.236 774.902 655.846 774.51C637.085 765.49 616.37 760 596.046 754.51C535.073 740.392 471.365 734.51 408.829 734.118C370.525 743.138 316.979 764.314 293.528 803.53C289.619 809.804 287.665 816.079 288.447 823.138C289.229 830.981 291.965 839.608 290.01 847.843C289.229 851.373 288.447 855.294 286.884 858.432C283.757 862.745 278.676 865.49 274.767 868.236C254.443 881.569 233.728 893.334 214.186 907.059C207.541 911.765 201.287 916.079 196.597 922.745C182.918 942.353 174.71 965.883 171.192 989.412C164.938 1037.26 171.192 1085.88 164.938 1133.73C157.903 1181.57 139.533 1227.84 113.737 1268.63C95.7581 1296.08 73.8705 1321.57 46.1202 1339.22L43.3842 1328.24H1053.34L1049.04 1338.04C1037.31 1324.71 1027.93 1310.2 1019.34 1294.9C992.758 1250.2 977.124 1199.61 970.48 1148.24ZM982.205 1146.67C986.504 1180 994.712 1212.94 1007.22 1244.31C1019.73 1275.29 1035.36 1305.49 1057.25 1330.98C1060.38 1334.51 1057.64 1341.18 1052.95 1340.78H42.9934C39.8666 1340.78 37.1306 1338.04 37.1306 1334.9C37.1306 1332.55 38.3032 1330.59 40.2574 1329.8C46.511 1326.27 52.7646 1321.18 58.6273 1316.08C109.829 1269.8 141.878 1201.18 152.431 1132.94C161.421 1069.02 144.614 1000 173.146 939.216C179.791 925.098 187.999 910.196 201.287 901.177C225.52 883.138 252.098 869.804 275.94 852.157C276.331 852.157 276.331 851.765 276.331 851.765C275.94 852.157 275.549 852.941 275.549 853.334C277.894 847.843 278.676 843.138 277.894 836.863C276.721 829.02 274.767 818.432 277.503 810.196C278.676 805.491 281.021 801.177 283.366 797.647C311.507 755.294 361.145 736.471 408.438 725.883C421.727 726.275 435.406 723.922 448.695 723.922C467.065 723.922 485.826 726.667 504.196 729.02C556.961 737.255 607.771 751.373 659.754 762.745L656.236 762.353C668.353 760 679.687 761.177 691.413 762.745C766.456 774.118 791.861 807.059 812.186 877.255C814.531 885.098 816.485 892.941 818.439 901.177L814.531 896.471C852.052 909.804 894.264 921.961 918.106 956.863C926.704 967.451 932.958 980 938.43 992.549C958.363 1042.75 973.997 1093.33 982.205 1146.67Z" fill="black"/>
<path d="M360.364 889.413C389.287 951.374 434.235 1003.92 487.781 1045.49C489.735 1047.06 487.781 1050.2 485.436 1049.02C437.752 1026.28 397.495 987.452 373.653 940.394C365.836 924.707 359.192 907.844 356.847 890.197C356.065 888.237 359.192 887.452 360.364 889.413Z" fill="black"/>
<path d="M818.049 902.354C819.222 967.844 792.644 1034.9 741.834 1077.26C740.661 1078.43 739.098 1078.04 737.925 1076.86C736.753 1075.69 737.144 1074.12 738.316 1072.94C749.651 1061.96 760.985 1050.59 769.584 1037.26C787.563 1011.37 798.507 980.785 803.588 949.805C805.933 934.511 807.497 918.04 806.324 902.746C805.933 895.295 817.659 894.511 818.049 902.354Z" fill="black"/>
<path d="M587.838 1058.04C578.848 1089.8 571.422 1124.31 575.721 1157.26C576.894 1164.71 565.559 1166.67 563.996 1158.82C562.042 1140.78 564.387 1123.14 567.514 1105.88C571.031 1088.63 575.331 1072.16 581.193 1055.69C582.757 1051.77 589.401 1053.73 587.838 1058.04Z" fill="black"/>
<path d="M712.128 1052.16C725.026 1080 734.016 1109.02 741.051 1138.43C741.833 1141.57 739.878 1144.71 736.752 1145.49C733.625 1146.27 730.498 1144.31 729.716 1141.18C725.808 1119.22 720.727 1097.26 713.691 1075.69C711.346 1068.63 709.001 1061.57 706.265 1054.51C704.702 1050.98 710.174 1048.24 712.128 1052.16Z" fill="black"/>
<path d="M292.355 855.686C306.817 934.902 362.318 1001.96 429.153 1044.71C451.822 1059.22 476.055 1071.76 501.069 1081.96C502.633 1082.75 503.414 1084.31 502.633 1085.88C502.242 1087.45 500.288 1088.24 499.115 1087.45C473.319 1078.04 448.304 1066.27 424.854 1052.16C377.17 1023.92 335.349 984.706 307.208 936.863C292.746 912.157 281.412 886.275 275.94 858.039C275.158 853.333 278.285 849.02 282.975 848.235C287.274 847.059 291.965 850.588 292.355 855.686Z" fill="black"/>
<path d="M564.385 1165.88C553.441 1164.71 545.624 1154.51 547.969 1143.53L552.269 1122.75C553.832 1114.51 561.649 1108.63 569.857 1109.8C578.065 1110.59 584.709 1117.65 584.709 1126.27V1147.45C585.1 1158.43 575.72 1167.06 564.385 1165.88Z" fill="black"/>
<path d="M744.568 1151.37C734.016 1155.29 722.681 1149.02 719.945 1138.04L714.864 1117.26C712.91 1109.02 717.209 1100.78 725.417 1097.65C733.234 1094.9 742.223 1098.43 745.741 1105.88L755.121 1125.1C759.812 1135.69 755.121 1147.84 744.568 1151.37Z" fill="black"/>
<path d="M925.141 1139.61C925.141 1139.61 947.029 1262.75 938.43 1334.9" stroke="black" stroke-width="5.1257" stroke-miterlimit="10" stroke-linecap="round" stroke-linejoin="round"/>
<path d="M414.69 841.569C409.218 825.883 406.873 809.805 408.046 793.334C408.046 791.765 409.218 790.981 410.782 790.981C411.954 790.981 413.127 792.157 413.127 793.334C414.299 808.236 418.599 823.53 425.634 836.471C429.152 844.314 417.426 849.412 414.69 841.569Z" fill="black"/>
<path d="M678.904 862.354C667.961 837.648 640.992 825.099 617.15 816.471C602.298 811.765 585.882 808.236 570.248 805.883C532.336 800.001 478.789 790.981 440.877 787.059C440.486 787.059 440.486 786.275 440.877 786.275C451.821 785.099 462.764 785.099 473.708 785.099C506.54 785.883 539.371 789.412 571.812 794.51C604.252 799.608 639.038 809.412 663.661 832.942C671.478 841.177 678.513 850.589 680.468 861.961C680.859 863.138 679.295 863.53 678.904 862.354Z" fill="black"/>
<path d="M715.252 959.927C707.044 1000.18 653.889 1024.42 564.384 988.068C471.362 950.547 431.104 861.042 420.942 834.464C476.052 731.28 437.749 659.755 437.749 659.755C564.775 648.811 675.776 797.334 675.776 797.334L692.974 870.813C694.537 877.067 697.664 882.539 702.354 886.447C710.562 900.909 720.333 934.131 715.252 959.927Z" fill="#EFBDA5"/>
<path d="M418.99 835.637C426.416 824.302 431.106 811.013 434.233 798.115C440.096 771.147 442.05 743.787 442.441 716.428V706.266C441.268 696.104 437.751 685.551 433.842 676.17C428.761 663.663 447.131 655.846 452.994 668.353C453.776 669.917 453.776 672.653 453.776 674.216C454.948 727.372 457.293 795.77 423.68 839.936C421.335 842.281 416.645 838.764 418.99 835.637Z" fill="black"/>
<path d="M680.076 796.552C685.939 800.07 687.893 804.76 688.675 809.45C691.02 818.831 690.238 828.993 692.584 838.764C694.538 848.144 700.401 857.134 701.964 866.905C703.918 877.067 709.781 898.564 712.126 909.117C712.908 911.462 711.344 914.198 708.608 914.589C707.045 914.98 705.872 914.589 704.7 913.807C699.619 909.508 697.274 905.208 694.147 899.736C689.066 890.356 685.548 881.757 682.422 871.204C679.686 861.824 680.858 851.662 678.513 841.891C676.559 832.51 671.087 823.521 669.133 813.75C667.96 809.059 667.569 803.978 671.087 798.116C673.432 795.77 677.34 794.989 680.076 796.552Z" fill="black"/>
<path d="M708.219 899.736C633.566 895.828 572.594 872.377 513.185 766.457C563.214 810.623 622.232 827.429 684.377 835.246L692.585 871.204C694.148 877.458 703.529 895.828 708.219 899.736Z" fill="black"/>
<path d="M705.093 885.275C718.382 910.29 726.199 941.558 717.992 969.308C711.738 988.85 693.759 1003.31 674.216 1008.78C628.878 1020.9 576.504 1001.75 536.246 980.252C486.608 952.501 449.869 905.99 426.418 855.18C424.854 851.271 430.326 848.144 432.671 852.053C440.879 868.469 450.259 884.494 460.812 898.955C471.365 913.807 483.482 927.487 497.161 939.603C537.028 975.561 590.965 997.84 644.903 997.84C700.403 996.277 721.509 966.963 708.611 913.026C706.657 904.427 703.53 895.437 699.231 888.011C696.886 884.884 702.748 881.367 705.093 885.275Z" fill="black"/>
<path d="M856.351 415.864C863.386 448.696 866.904 475.274 847.752 562.824C828.991 649.983 874.721 667.962 766.455 807.496C722.289 864.56 615.197 848.535 528.428 789.517C499.114 769.583 486.607 718.382 464.719 682.033C447.522 653.501 439.705 683.206 417.036 658.582C386.159 624.969 349.028 557.352 367.398 437.752C397.102 243.891 550.706 221.221 664.444 242.718C778.963 264.606 837.59 329.487 856.351 415.864Z" fill="#EFBDA5"/>
<path d="M436.578 693.367C427.589 678.124 415.863 664.835 404.919 650.765C394.366 636.303 385.768 620.279 378.732 603.863C332.221 489.735 350.2 329.096 464.329 261.869C511.621 234.51 568.685 227.866 621.841 232.165C735.578 240.373 839.935 292.747 864.559 413.128C877.847 466.284 859.868 521.003 849.706 572.986C845.016 598.782 848.925 625.36 848.534 651.937C848.143 678.906 840.717 705.875 830.555 730.889C824.301 748.086 813.357 763.33 802.023 777.4C783.262 800.069 764.501 823.13 740.659 840.718C735.187 844.626 725.416 846.581 718.772 847.362C700.402 850.098 682.423 850.88 664.053 849.707C592.136 846.581 515.139 811.795 486.216 742.224C485.044 739.488 488.952 737.534 490.515 739.879C528.037 799.288 596.827 828.601 665.225 832.51C686.331 833.683 707.828 833.292 728.543 828.992C738.705 823.911 747.695 814.922 756.293 806.714C777.399 785.608 798.896 762.939 814.139 737.143C832.509 702.357 842.671 664.445 839.544 624.969C838.763 607.381 838.372 589.011 841.889 571.422C845.016 553.834 848.925 537.028 851.27 519.049C853.615 501.851 854.787 484.263 854.787 467.066C852.833 416.646 836.417 364.663 804.368 325.578C733.624 237.637 566.34 214.577 472.146 274.768C412.736 311.507 384.986 380.297 375.996 447.132C362.317 527.256 366.225 606.208 429.934 664.445L448.695 683.987C456.121 692.586 442.832 702.748 436.578 693.367Z" fill="black"/>
<path d="M482.697 569.077C482.697 569.077 470.581 510.449 413.517 517.485C364.269 523.738 347.072 641.775 458.855 674.606" fill="#EFBDA5"/>
<path d="M453.775 623.405C444.786 618.324 438.532 609.726 438.141 599.173C438.532 591.356 439.705 582.366 437.751 574.549C436.578 567.123 428.761 565.169 422.898 565.56C416.645 566.732 412.736 574.549 411.564 580.803C411.564 581.194 411.173 582.366 411.173 582.757C410.782 584.711 407.655 584.711 406.874 582.757C401.792 567.514 413.127 550.707 429.543 552.662C452.603 554.225 455.73 578.458 451.43 596.828C449.085 604.645 452.212 611.68 456.511 618.324L457.293 619.497C459.247 621.842 456.121 624.969 453.775 623.405Z" fill="black"/>
<path d="M766.454 527.647C772.317 555.397 783.261 581.193 796.941 605.426C809.057 635.13 777.789 663.272 750.039 662.099C746.912 662.099 746.521 657.8 749.257 657.018C766.845 651.546 782.87 639.821 785.606 621.842C786.778 616.37 785.215 611.68 782.479 606.989C769.581 582.757 761.764 555.006 763.718 527.647C763.718 525.693 766.454 525.693 766.454 527.647Z" fill="black"/>
<path d="M480.744 569.468C471.755 546.408 452.212 524.521 426.025 524.912C423.68 524.521 419.772 525.302 417.427 525.302C410.782 525.693 405.31 528.038 400.229 532.729C375.215 557.743 379.514 601.909 399.838 629.659C406.874 639.431 415.863 648.029 426.025 655.065C436.187 662.1 447.522 667.572 459.638 672.262C462.374 673.044 461.202 677.343 458.466 676.952C432.279 671.48 407.264 658.582 390.067 637.085C363.489 605.036 358.017 551.489 389.676 520.221C396.711 513.968 406.483 509.278 416.254 509.278C419.381 509.278 424.071 508.496 427.198 509.278C443.613 510.059 459.247 518.267 469.409 531.165C478.399 542.109 483.48 555.398 485.043 568.687C485.043 571.032 481.526 571.814 480.744 569.468Z" fill="black"/>
<path d="M739.216 703.529C714.118 727.451 666.667 708.235 654.118 679.216C652.549 675.686 656.471 672.549 659.608 674.117C666.275 677.647 672.157 681.176 678.432 683.921C696.471 692.157 715.294 698.823 735.294 696.863C739.216 696.078 741.961 700.784 739.216 703.529Z" fill="black"/>
<path d="M622.746 569.412C613.334 569.02 606.275 561.177 607.06 551.765L607.452 540.785C607.844 531.373 615.687 524.314 625.099 525.099C634.511 525.491 641.57 533.334 640.785 542.746L640.393 553.726C640.001 562.746 632.158 569.804 622.746 569.412Z" fill="black"/>
<path d="M787.843 575.295C779.215 574.903 772.549 567.452 772.941 558.824L773.333 548.628C773.725 540.001 781.176 533.334 789.803 533.726C798.431 534.119 805.098 541.57 804.705 550.197L804.313 560.393C803.921 569.02 796.47 575.687 787.843 575.295Z" fill="black"/>
<path d="M658.04 548.236C645.099 539.608 630.981 533.726 615.295 536.863C610.197 537.647 605.099 539.216 601.962 542.746C600.785 544.314 598.04 543.922 598.04 541.569C598.432 533.726 605.099 528.628 611.373 525.491C623.53 519.216 640.393 520.393 651.373 528.628C655.295 530.981 668.628 545.491 661.569 548.628C660.001 549.412 659.217 549.02 658.04 548.236Z" fill="black"/>
<path d="M770.197 550.197C770.197 533.726 790.589 527.844 803.138 533.726C810.197 536.863 815.295 543.138 817.256 550.589C818.04 552.942 814.511 554.903 812.942 552.942C806.275 545.099 794.903 541.177 785.883 545.883C783.138 547.452 782.746 548.628 781.962 550.197C781.962 558.04 770.589 557.648 770.197 550.197Z" fill="black"/>
<path d="M676.864 483.53C685.099 486.275 693.334 478.824 691.766 469.804C690.981 465.098 689.02 460.392 685.099 456.863C673.334 446.275 624.707 436.863 595.295 450.589C569.413 463.138 639.217 470.981 676.864 483.53Z" fill="black"/>
<path d="M794.12 489.804C787.453 492.157 780.394 485.098 781.571 476.863C781.963 472.549 783.532 468.236 786.669 465.098C796.081 455.687 828.237 448.236 848.63 462.745C866.277 474.902 824.708 478.432 794.12 489.804Z" fill="black"/>
<path d="M869.806 303.922C860.394 275.294 847.061 250.588 833.335 237.255C804.708 209.02 795.296 247.059 795.296 247.059C795.296 247.059 751.767 165.882 691.767 154.902C649.022 147.059 660.394 196.471 660.394 196.471C660.394 196.471 609.022 141.177 537.257 141.177C480.394 141.177 501.963 190.196 501.963 190.196C501.963 190.196 500.786 132.157 458.041 142.353C415.296 152.549 431.375 236.863 431.375 236.863C397.257 151.373 339.218 234.51 329.414 413.333C323.531 519.608 354.904 588.628 376.08 622.745C394.904 656.471 416.08 680 427.845 701.177C444.708 731.373 452.943 764.314 452.943 764.314C456.865 748.235 465.1 692.157 460.394 676.863L447.453 672.549C349.414 634.902 367.061 525.49 414.904 519.216C465.1 512.941 480.786 557.647 483.531 568.628C501.571 547.059 452.551 407.059 539.61 372.941C623.924 340 676.473 388.628 766.669 400.784C794.904 404.706 821.571 383.922 841.963 387.451C848.237 388.628 852.943 393.333 854.904 399.608C856.473 405.49 858.041 411.373 859.61 417.647C864.708 441.569 966.669 322.745 869.806 303.922Z" fill="black"/>
<path d="M685.099 617.647C685.099 617.647 648.236 640.784 606.667 640.392C565.099 640 560.001 607.451 559.608 589.804C559.608 589.804 565.099 615.294 590.197 624.706C614.903 634.117 685.099 617.647 685.099 617.647Z" fill="black"/>
<path d="M803.527 613.333C803.527 613.333 812.547 624.313 824.704 632.157C832.939 637.647 843.919 631.764 843.919 621.961C843.919 621.961 821.174 623.137 803.527 613.333Z" fill="black"/>
<path d="M698.822 512.941C677.645 510.98 624.312 506.667 603.92 504.706L588.233 503.529C575.292 502.745 565.096 513.725 562.743 526.274C561.959 530.196 561.959 536.863 561.959 540.784V556.863C561.959 566.667 561.567 576.863 565.096 586.275C571.371 608.235 591.371 625.882 614.9 623.137C617.253 622.745 631.763 621.176 634.508 620.784L666.273 617.255C676.469 616.471 685.88 613.726 694.9 608.235C707.449 600.784 719.606 589.412 718.822 573.333L719.606 557.647C720.39 538.039 725.88 514.902 698.822 512.941ZM699.998 500C718.429 501.569 730.978 520.784 729.802 538.431C729.802 540.784 729.018 555.686 728.625 558.431C728.625 561.569 727.841 575.686 727.449 578.431C725.488 605.098 695.684 623.922 671.371 627.451C658.822 629.02 632.547 632.549 619.998 634.118C616.861 634.51 612.547 634.902 609.41 635.294C607.841 635.294 604.312 634.902 602.743 634.902C569.41 630.588 548.233 596.471 549.018 564.706C549.018 559.608 549.018 546.274 549.018 540.784C549.018 538.039 549.018 530.98 549.41 528.235C550.586 514.51 558.037 501.176 570.586 493.725C576.076 490.588 582.743 489.02 589.41 489.412L605.488 490.98C625.096 493.333 679.214 498.431 699.998 500Z" fill="black"/>
<path d="M790.979 506.274C799.607 505.098 841.96 500.392 849.803 499.608C851.764 499.608 856.862 498.823 858.43 498.823C875.293 496.47 883.136 514.902 884.705 528.627C885.489 540.784 884.705 552.549 885.097 564.314C885.097 572.549 884.313 580.784 882.352 588.627C877.254 609.804 862.352 632.157 837.646 625.098C831.764 623.921 819.999 622.353 814.509 621.176L808.627 620C797.254 618.039 787.842 610.196 781.568 601.568C769.803 587.843 772.156 569.412 770.979 552.941C769.411 536.47 769.803 510.98 790.979 506.274ZM792.548 517.647C780.391 523.137 783.529 541.568 783.529 552.549L784.313 576.078C784.705 590.98 796.47 605.882 810.587 609.804C814.117 610.588 823.921 612.549 827.842 613.333L839.215 615.686C867.45 624.706 878.43 585.49 878.038 563.921C876.862 545.882 882.352 524.314 869.411 509.804C866.274 506.666 863.136 505.882 859.607 506.666C857.646 507.059 852.548 507.843 850.979 508.235C843.136 509.804 800.783 516.47 792.548 517.647Z" fill="black"/>
<path d="M555.293 542.745C552.156 549.804 549.411 549.02 543.921 549.02L532.548 548.628C518.038 547.843 501.96 546.667 487.45 544.706C479.607 543.53 471.372 542.353 463.528 540.392C460.391 539.608 458.43 536.471 459.215 533.333C459.999 530.588 462.352 528.628 465.097 529.02L487.842 530.196L510.587 530.98C518.038 531.373 537.254 531.765 544.705 532.157C548.626 532.157 552.156 532.549 556.077 531.373C557.646 530.981 559.215 531.765 559.607 533.333C559.999 534.118 559.607 534.51 559.607 535.294L555.293 542.745Z" fill="black"/>
<path d="M722.352 534.51C736.47 526.667 773.724 515.686 780.783 536.863C783.921 542.353 775.685 547.451 772.156 541.961C772.156 542.745 770.195 541.961 769.411 541.961C754.509 540.784 739.215 543.137 724.313 544.314C718.038 545.098 716.862 536.863 722.352 534.51Z" fill="black"/>
<path d="M1126.2 336.588C1364.24 795.02 945.804 1312.27 446.981 1186C223.059 1130.31 43.0589 936.196 5.80403 708.353C-36.5489 481.686 65.804 238.157 257.177 109.922C519.53 -70.4704 883.059 -10.4704 1070.9 247.569C1072.08 248.745 1071.69 250.706 1070.12 251.883C1068.94 253.059 1066.98 252.667 1065.8 251.098C1039.92 217.765 1010.51 187.569 978.353 160.51C925.412 115.412 863.451 80.1179 797.961 56.1963C464.628 -64.588 98.7452 136.196 25.804 484.824C-56.5489 875.412 275.608 1235.02 671.686 1181.29C977.177 1142.86 1204.24 860.902 1179.14 554.235C1173.65 480.118 1154.04 406.785 1121.49 339.334C1120.71 338.157 1121.49 336.588 1122.67 335.804C1123.84 335.02 1125.41 335.412 1126.2 336.588Z" fill="black"/>
</g>
</svg>
